  0
SECTION
  2
ENTITIES
999
DXF created from WinEPDraw
999
Program Version,EPDraw, Version 3.0
999
Polygon Action,TRIANGULATE 3DFACE
999
Text - True North
  0
TEXT
  8
1
  6
Continuous
 62
  3
 10
       -9.17120
 20
        4.14300
 30
        0.10000
 40
 .25
  1
True North
 41
 0.0
  7
MONOTXT
210
0.0
220
0.0
230
1.0
999
Text - Building Title
  0
TEXT
  8
1
  6
Continuous
 62
  3
 10
      -12.17120
 20
        0.14300
 30
        0.10000
 40
 .4
  1
Building - BUILDING 1
 41
 0.0
  7
MONOTXT
210
0.0
220
0.0
230
1.0
999
North Arrow Stem
  0
3DFACE
  8
1
 62
  3
 10
       -8.17120
 20
        4.14300
 30
        0.10000
 11
       -8.17120
 21
        4.14300
 31
        0.00000
 12
       -8.17120
 22
        1.14300
 32
        0.00000
 13
       -8.17120
 23
        1.14300
 33
        0.10000
999
North Arrow Head 1
  0
3DFACE
  8
1
 62
  3
 10
       -8.17120
 20
        4.14300
 30
        0.10000
 11
       -8.17120
 21
        4.14300
 31
        0.00000
 12
       -8.67120
 22
        3.27698
 32
        0.00000
 13
       -8.67120
 23
        3.27698
 33
        0.10000
999
North Arrow Head 2
  0
3DFACE
  8
1
 62
  3
 10
       -8.17120
 20
        4.14300
 30
        0.10000
 11
       -8.17120
 21
        4.14300
 31
        0.00000
 12
       -7.67120
 22
        3.27698
 32
        0.00000
 13
       -7.67120
 23
        3.27698
 33
        0.10000
999
North Arrow Side 1
  0
3DFACE
  8
1
 62
  3
 10
       -8.67120
 20
        5.64300
 30
        0.10000
 11
       -8.67120
 21
        5.64300
 31
        0.00000
 12
       -8.67120
 22
        4.64300
 32
        0.00000
 13
       -8.67120
 23
        4.64300
 33
        0.10000
999
North Arrow Side 2
  0
3DFACE
  8
1
 62
  3
 10
       -8.67120
 20
        5.64300
 30
        0.10000
 11
       -8.67120
 21
        5.64300
 31
        0.00000
 12
       -7.67120
 22
        4.64300
 32
        0.00000
 13
       -7.67120
 23
        4.64300
 33
        0.10000
999
North Arrow Side 3
  0
3DFACE
  8
1
 62
  3
 10
       -7.67120
 20
        5.64300
 30
        0.10000
 11
       -7.67120
 21
        5.64300
 31
        0.00000
 12
       -7.67120
 22
        4.64300
 32
        0.00000
 13
       -7.67120
 23
        4.64300
 33
        0.10000
999
Zone Names
999
Zone=1:ATTIC
999
Zone=2:BASEMENT
999
Zone=3:FLOOR1
999
ATTIC:SURFACE 19
  0
3DFACE
  8
ATTIC
 62
 43
 10
        1.82880
 20
        4.89300
 30
        5.17500
 11
        1.82880
 21
        8.64300
 31
        3.30000
 12
        1.82880
 22
        1.14300
 32
        3.30000
 13
        1.82880
 23
        1.14300
 33
        3.30000
999
ATTIC:SURFACE 20
  0
3DFACE
  8
ATTIC
 62
 43
 10
       13.82880
 20
        4.89300
 30
        5.17500
 11
       13.82880
 21
        1.14300
 31
        3.30000
 12
       13.82880
 22
        8.64300
 32
        3.30000
 13
       13.82880
 23
        8.64300
 33
        3.30000
999
ATTIC:SURFACE 16
  0
3DFACE
  8
ATTIC
 62
  8
 10
       13.82880
 20
        8.64300
 30
        3.30000
 11
       13.82880
 21
        1.14300
 31
        3.30000
 12
        1.82880
 22
        1.14300
 32
        3.30000
 13
        1.82880
 23
        8.64300
 33
        3.30000
999
ATTIC:SURFACE 18
  0
3DFACE
  8
ATTIC
 62
 15
 10
        1.82880
 20
        4.89300
 30
        5.17500
 11
        1.82880
 21
        1.14300
 31
        3.30000
 12
       13.82880
 22
        1.14300
 32
        3.30000
 13
       13.82880
 23
        4.89300
 33
        5.17500
999
ATTIC:SURFACE 21
  0
3DFACE
  8
ATTIC
 62
 15
 10
       13.82880
 20
        4.89300
 30
        5.17500
 11
       13.82880
 21
        8.64300
 31
        3.30000
 12
        1.82880
 22
        8.64300
 32
        3.30000
 13
        1.82880
 23
        4.89300
 33
        5.17500
999
BASEMENT:SURFACE 13
  0
3DFACE
  8
BASEMENT
 62
 43
 10
        1.82880
 20
        8.64300
 30
        0.80000
 11
        1.82880
 21
        8.64300
 31
        0.00000
 12
        1.82880
 22
        1.14300
 32
        0.00000
 13
        1.82880
 23
        1.14300
 33
        0.80000
999
BASEMENT:SURFACE 14
  0
3DFACE
  8
BASEMENT
 62
 43
 10
       13.82880
 20
        8.64300
 30
        0.80000
 11
       13.82880
 21
        8.64300
 31
        0.00000
 12
        1.82880
 22
        8.64300
 32
        0.00000
 13
        1.82880
 23
        8.64300
 33
        0.80000
999
BASEMENT:SUB SURFACE 14
  0
3DFACE
  8
BASEMENT
 62
143
 10
        9.39668
 20
        8.64300
 30
        0.56246
 11
        9.39668
 21
        8.64300
 31
        0.23323
 12
        7.89668
 22
        8.64300
 32
        0.23323
 13
        7.89668
 23
        8.64300
 33
        0.56246
999
BASEMENT:SUB SURFACE 15
  0
3DFACE
  8
BASEMENT
 62
143
 10
       12.94899
 20
        8.64300
 30
        0.56546
 11
       12.94899
 21
        8.64300
 31
        0.23473
 12
       11.44899
 22
        8.64300
 32
        0.23473
 13
       11.44899
 23
        8.64300
 33
        0.56546
999
BASEMENT:SUB SURFACE 16
  0
3DFACE
  8
BASEMENT
 62
143
 10
        4.72168
 20
        8.64300
 30
        0.56694
 11
        4.72168
 21
        8.64300
 31
        0.23221
 12
        3.22168
 22
        8.64300
 32
        0.23221
 13
        3.22168
 23
        8.64300
 33
        0.56694
999
BASEMENT:SURFACE 15
  0
3DFACE
  8
BASEMENT
 62
 43
 10
       13.82880
 20
        1.14300
 30
        0.80000
 11
       13.82880
 21
        1.14300
 31
        0.00000
 12
       13.82880
 22
        8.64300
 32
        0.00000
 13
       13.82880
 23
        8.64300
 33
        0.80000
999
BASEMENT:SURFACE 17
  0
3DFACE
  8
BASEMENT
 62
 43
 10
        1.82880
 20
        1.14300
 30
        0.80000
 11
        1.82880
 21
        1.14300
 31
        0.00000
 12
       13.82880
 22
        1.14300
 32
        0.00000
 13
       13.82880
 23
        1.14300
 33
        0.80000
999
BASEMENT:SUB SURFACE 4
  0
3DFACE
  8
BASEMENT
 62
143
 10
        3.07649
 20
        1.14300
 30
        0.56807
 11
        3.07649
 21
        1.14300
 31
        0.23335
 12
        4.57649
 22
        1.14300
 32
        0.23335
 13
        4.57649
 23
        1.14300
 33
        0.56807
999
BASEMENT:SUB SURFACE 5
  0
3DFACE
  8
BASEMENT
 62
143
 10
        7.75149
 20
        1.14300
 30
        0.56360
 11
        7.75149
 21
        1.14300
 31
        0.23436
 12
        9.25149
 22
        1.14300
 32
        0.23436
 13
        9.25149
 23
        1.14300
 33
        0.56360
999
BASEMENT:SUB SURFACE 6
  0
3DFACE
  8
BASEMENT
 62
143
 10
       11.30380
 20
        1.14300
 30
        0.56660
 11
       11.30380
 21
        1.14300
 31
        0.23586
 12
       12.80380
 22
        1.14300
 32
        0.23586
 13
       12.80380
 23
        1.14300
 33
        0.56660
999
BASEMENT:SURFACE 2
  0
3DFACE
  8
BASEMENT
 62
 43
 10
        1.82880
 20
        1.14300
 30
        0.00000
 11
        1.82880
 21
        1.14300
 31
       -1.50000
 12
       13.82880
 22
        1.14300
 32
       -1.50000
 13
       13.82880
 23
        1.14300
 33
        0.00000
999
BASEMENT:SURFACE 4
  0
3DFACE
  8
BASEMENT
 62
 43
 10
       13.82880
 20
        1.14300
 30
        0.00000
 11
       13.82880
 21
        1.14300
 31
       -1.50000
 12
       13.82880
 22
        8.64300
 32
       -1.50000
 13
       13.82880
 23
        8.64300
 33
        0.00000
999
BASEMENT:SURFACE 5
  0
3DFACE
  8
BASEMENT
 62
 43
 10
        1.82880
 20
        8.64300
 30
        0.00000
 11
        1.82880
 21
        8.64300
 31
       -1.50000
 12
        1.82880
 22
        1.14300
 32
       -1.50000
 13
        1.82880
 23
        1.14300
 33
        0.00000
999
BASEMENT:SURFACE 6
  0
3DFACE
  8
BASEMENT
 62
 43
 10
       13.82880
 20
        8.64300
 30
        0.00000
 11
       13.82880
 21
        8.64300
 31
       -1.50000
 12
        1.82880
 22
        8.64300
 32
       -1.50000
 13
        1.82880
 23
        8.64300
 33
        0.00000
999
BASEMENT:SURFACE 1
  0
3DFACE
  8
BASEMENT
 62
  8
 10
       13.82880
 20
        8.64300
 30
       -1.50000
 11
       13.82880
 21
        1.14300
 31
       -1.50000
 12
        1.82880
 22
        1.14300
 32
       -1.50000
 13
        1.82880
 23
        8.64300
 33
       -1.50000
999
BASEMENT:SURFACE 3
  0
3DFACE
  8
BASEMENT
 62
 15
 10
       13.82880
 20
        1.14300
 30
        0.80000
 11
       13.82880
 21
        8.64300
 31
        0.80000
 12
        1.82880
 22
        8.64300
 32
        0.80000
 13
        1.82880
 23
        1.14300
 33
        0.80000
999
FLOOR1:SURFACE 10
  0
3DFACE
  8
FLOOR1
 62
 43
 10
        1.82880
 20
        1.14300
 30
        3.30000
 11
        1.82880
 21
        1.14300
 31
        0.80000
 12
       13.82880
 22
        1.14300
 32
        0.80000
 13
       13.82880
 23
        1.14300
 33
        3.30000
999
FLOOR1:SUB SURFACE 1
  0
3DFACE
  8
FLOOR1
 62
143
 10
        3.08127
 20
        1.14300
 30
        2.54936
 11
        3.08127
 21
        1.14300
 31
        1.54936
 12
        4.58127
 22
        1.14300
 32
        1.54936
 13
        4.58127
 23
        1.14300
 33
        2.54936
999
FLOOR1:SUB SURFACE 2
  0
3DFACE
  8
FLOOR1
 62
143
 10
        7.75149
 20
        1.14300
 30
        2.55045
 11
        7.75149
 21
        1.14300
 31
        1.55045
 12
        9.25149
 22
        1.14300
 32
        1.55045
 13
        9.25149
 23
        1.14300
 33
        2.55045
999
FLOOR1:SUB SURFACE 3
  0
3DFACE
  8
FLOOR1
 62
143
 10
       11.30380
 20
        1.14300
 30
        2.54518
 11
       11.30380
 21
        1.14300
 31
        1.54518
 12
       12.80380
 22
        1.14300
 32
        1.54518
 13
       12.80380
 23
        1.14300
 33
        2.54518
999
FLOOR1:SUB SURFACE 7
  0
3DFACE
  8
FLOOR1
 62
 45
 10
        5.82880
 20
        1.14300
 30
        2.80000
 11
        5.82880
 21
        1.14300
 31
        0.80000
 12
        6.72880
 22
        1.14300
 32
        0.80000
 13
        6.72880
 23
        1.14300
 33
        2.80000
999
FLOOR1:SURFACE 11
  0
3DFACE
  8
FLOOR1
 62
 43
 10
       13.82880
 20
        1.14300
 30
        3.30000
 11
       13.82880
 21
        1.14300
 31
        0.80000
 12
       13.82880
 22
        8.64300
 32
        0.80000
 13
       13.82880
 23
        8.64300
 33
        3.30000
999
FLOOR1:SUB SURFACE 12
  0
3DFACE
  8
FLOOR1
 62
143
 10
       13.82880
 20
        2.39300
 30
        2.55000
 11
       13.82880
 21
        2.39300
 31
        1.55000
 12
       13.82880
 22
        3.89300
 32
        1.55000
 13
       13.82880
 23
        3.89300
 33
        2.55000
999
FLOOR1:SUB SURFACE 13
  0
3DFACE
  8
FLOOR1
 62
143
 10
       13.82880
 20
        5.89300
 30
        2.55000
 11
       13.82880
 21
        5.89300
 31
        1.55000
 12
       13.82880
 22
        7.39300
 32
        1.55000
 13
       13.82880
 23
        7.39300
 33
        2.55000
999
FLOOR1:SURFACE 12
  0
3DFACE
  8
FLOOR1
 62
 43
 10
        1.82880
 20
        8.64300
 30
        3.30000
 11
        1.82880
 21
        8.64300
 31
        0.80000
 12
        1.82880
 22
        1.14300
 32
        0.80000
 13
        1.82880
 23
        1.14300
 33
        3.30000
999
FLOOR1:SUB SURFACE 17
  0
3DFACE
  8
FLOOR1
 62
143
 10
        1.82880
 20
        7.39598
 30
        2.55151
 11
        1.82880
 21
        7.39598
 31
        1.55151
 12
        1.82880
 22
        5.89598
 32
        1.55151
 13
        1.82880
 23
        5.89598
 33
        2.55151
999
FLOOR1:SUB SURFACE 18
  0
3DFACE
  8
FLOOR1
 62
143
 10
        1.82880
 20
        3.89598
 30
        2.55151
 11
        1.82880
 21
        3.89598
 31
        1.55151
 12
        1.82880
 22
        2.39598
 32
        1.55151
 13
        1.82880
 23
        2.39598
 33
        2.55151
999
FLOOR1:SURFACE 8
  0
3DFACE
  8
FLOOR1
 62
 43
 10
       13.82880
 20
        8.64300
 30
        3.30000
 11
       13.82880
 21
        8.64300
 31
        0.80000
 12
        1.82880
 22
        8.64300
 32
        0.80000
 13
        1.82880
 23
        8.64300
 33
        3.30000
999
FLOOR1:SUB SURFACE 10
  0
3DFACE
  8
FLOOR1
 62
 45
 10
        6.87294
 20
        8.64300
 30
        2.80000
 11
        6.87294
 21
        8.64300
 31
        0.80000
 12
        5.97294
 22
        8.64300
 32
        0.80000
 13
        5.97294
 23
        8.64300
 33
        2.80000
999
FLOOR1:SUB SURFACE 11
  0
3DFACE
  8
FLOOR1
 62
143
 10
        4.72541
 20
        8.64300
 30
        2.54936
 11
        4.72541
 21
        8.64300
 31
        1.54936
 12
        3.22541
 22
        8.64300
 32
        1.54936
 13
        3.22541
 23
        8.64300
 33
        2.54936
999
FLOOR1:SUB SURFACE 8
  0
3DFACE
  8
FLOOR1
 62
143
 10
        9.39563
 20
        8.64300
 30
        2.55045
 11
        9.39563
 21
        8.64300
 31
        1.55045
 12
        7.89563
 22
        8.64300
 32
        1.55045
 13
        7.89563
 23
        8.64300
 33
        2.55045
999
FLOOR1:SUB SURFACE 9
  0
3DFACE
  8
FLOOR1
 62
143
 10
       12.94794
 20
        8.64300
 30
        2.54518
 11
       12.94794
 21
        8.64300
 31
        1.54518
 12
       11.44794
 22
        8.64300
 32
        1.54518
 13
       11.44794
 23
        8.64300
 33
        2.54518
999
FLOOR1:SURFACE 7
  0
3DFACE
  8
FLOOR1
 62
  8
 10
       13.82880
 20
        8.64300
 30
        0.80000
 11
       13.82880
 21
        1.14300
 31
        0.80000
 12
        1.82880
 22
        1.14300
 32
        0.80000
 13
        1.82880
 23
        8.64300
 33
        0.80000
999
FLOOR1:SURFACE 9
  0
3DFACE
  8
FLOOR1
 62
 15
 10
       13.82880
 20
        1.14300
 30
        3.30000
 11
       13.82880
 21
        8.64300
 31
        3.30000
 12
        1.82880
 22
        8.64300
 32
        3.30000
 13
        1.82880
 23
        1.14300
 33
        3.30000
  0
ENDSEC
  0
EOF
